<svg xmlns="http://www.w3.org/2000/svg" xmlns:xlink="http://www.w3.org/1999/xlink" width="700pt" height="700pt" version="1.1" viewBox="0 0 700 700">
 
 <g>
  <path d="m510.72 54.879c5.6016 0 10.641-5.0391 10.078-10.641 0-5.6016-4.4805-10.078-10.078-10.078s-10.641 5.0391-10.078 10.641c0 5.5977 4.4805 10.078 10.078 10.078z" fill="#fdfcf2"/>
  <path d="m492.8 75.602c5.6016-1.6797 8.3984-7.8398 6.7188-13.441-1.6797-5.6016-7.8398-8.3984-12.879-6.7188-5.6016 1.6797-8.3984 7.8398-6.7188 13.441 1.6797 5.5977 7.8398 8.3984 12.879 6.7188z" fill="#fdfcf2"/>
  <path d="m539.28 66.078c1.6797-5.6016-1.6797-11.199-7.2812-12.879-5.6016-1.6797-11.199 1.1211-12.879 6.7188-1.6797 5.6016 1.6797 11.199 7.2812 12.879 5.5977 1.6836 11.199-1.1172 12.879-6.7188z" fill="#fdfcf2"/>
  <path d="m556.08 87.359c3.3594-5.0391 2.2383-11.199-2.8008-14.559-4.4805-3.3594-11.199-2.2383-14.559 2.2383-3.3594 5.0391-2.2383 11.199 2.8008 14.559 5.0391 3.3633 11.199 2.2422 14.559-2.2383z" fill="#fdfcf2"/>
  <path d="m574.56 93.52c-3.3594-4.4805-10.078-5.6016-14.559-1.6797-4.4805 3.3594-5.6016 9.5195-2.2383 14.559 3.3594 4.4805 10.078 5.6016 14.559 1.6797 4.4805-3.3594 5.6016-9.5195 2.2383-14.559z" fill="#fdfcf2"/>
  <path d="m581.28 128.24c5.6016 1.6797 11.199-1.6797 12.879-7.2812 1.6797-5.6016-1.1211-11.199-6.7188-12.879-5.6016-1.6797-11.199 1.6797-12.879 7.2812-1.1211 5.6016 1.6758 11.199 6.7188 12.879z" fill="#fdfcf2"/>
  <path d="m566.72 146.72c5.6016 0 10.641-5.0391 10.078-10.641 0-5.6016-4.4805-10.078-10.078-10.078-5.6016 0-10.641 5.0391-10.078 10.641 0 5.5977 4.4805 10.078 10.078 10.078z" fill="#fdfcf2"/>
  <path d="m544.32 165.2c5.6016 1.6797 11.199-1.6797 12.879-7.2812 1.6797-5.6016-1.1211-11.199-6.7188-12.879-5.6016-1.6797-11.199 1.6797-12.879 7.2812-1.1211 5.6016 1.6797 11.199 6.7188 12.879z" fill="#fdfcf2"/>
  <path d="m524.16 185.92c5.6016 1.6797 11.199-1.6797 12.879-7.2812 1.6797-5.6016-1.1211-11.199-6.7188-12.879-5.6016-1.6797-11.199 1.6797-12.879 7.2812-1.6797 5.5977 1.1172 11.195 6.7188 12.879z" fill="#fdfcf2"/>
  <path d="m526.4 154c5.6016-1.6797 8.3984-7.8398 6.7188-13.441-1.6797-5.6016-7.8398-8.3984-12.879-6.7188-5.6016 1.6797-8.3984 7.8398-6.7188 13.441 1.6797 5.5977 7.2812 8.3984 12.879 6.7188z" fill="#fdfcf2"/>
  <path d="m547.12 131.04c5.6016-1.6797 8.3984-7.8398 6.7188-13.441-1.6797-5.6016-7.8398-8.3984-12.879-6.7188-5.6016 1.6797-8.3984 7.8398-6.7188 13.441 1.6797 5.6016 7.8359 8.3984 12.879 6.7188z" fill="#fdfcf2"/>
  <path d="m538.16 93.52c-3.3594-4.4805-10.078-5.6016-14.559-2.2383-4.4805 3.3594-5.6016 9.5195-2.2383 14.559 3.3594 4.4805 10.078 5.6016 14.559 2.2383 3.918-3.918 5.0391-10.078 2.2383-14.559z" fill="#fdfcf2"/>
  <path d="m516.88 87.359c3.3594-5.0391 2.2383-11.199-2.8008-14.559-4.4805-3.3594-11.199-2.2383-14.559 2.2383-3.3594 5.0391-2.2383 11.199 2.8008 14.559 4.4805 3.3633 11.199 2.2422 14.559-2.2383z" fill="#fdfcf2"/>
  <path d="m496.16 110.88c4.4805-3.3594 5.6016-10.078 2.2383-14.559-3.3594-4.4805-9.5195-5.6016-14.559-2.2383-4.4805 3.3594-5.6016 10.078-2.2383 14.559 3.3594 4.4805 9.5195 5.5977 14.559 2.2383z" fill="#fdfcf2"/>
  <path d="m517.44 114.8c-3.3594-4.4805-10.078-5.6016-14.559-2.2383-4.4805 3.3594-5.6016 9.5195-2.2383 14.559 3.3594 4.4805 10.078 5.6016 14.559 2.2383 4.4766-3.918 5.5977-10.078 2.2383-14.559z" fill="#fdfcf2"/>
  <path d="m496.72 135.52c-3.3594-4.4805-10.078-5.6016-14.559-2.2383-4.4805 3.3594-5.6016 9.5195-2.2383 14.559 3.3594 4.4805 10.078 5.6016 14.559 2.2383 4.4805-3.918 5.5977-10.078 2.2383-14.559z" fill="#fdfcf2"/>
  <path d="m504.56 175.84c5.6016-1.6797 8.3984-7.8398 6.7188-13.441-1.6797-5.6016-7.8398-8.3984-12.879-6.7188-5.6016 1.6797-8.3984 7.8398-6.7188 13.441 1.6797 5.0391 7.2812 8.3984 12.879 6.7188z" fill="#fdfcf2"/>
  <path d="m502.88 207.2c5.6016 1.6797 11.199-1.6797 12.879-7.2812 1.6797-5.6016-1.1211-11.199-6.7188-12.879-5.6016-1.6797-11.199 1.6797-12.879 7.2812-1.6797 5.0391 1.1211 10.641 6.7188 12.879z" fill="#fdfcf2"/>
  <path d="m482.72 227.36c5.6016 1.6797 11.199-1.6797 12.879-7.2812 1.6797-5.6016-1.1211-11.199-6.7188-12.879-5.6016-1.6797-11.199 1.6797-12.879 7.2812-1.6797 5.5977 1.1211 11.199 6.7188 12.879z" fill="#fdfcf2"/>
  <path d="m465.36 248.08c5.6016 0 10.641-5.0391 10.078-10.641 0-5.6016-4.4805-10.078-10.078-10.078-5.6016 0-10.641 5.0391-10.078 10.641 0 5.6016 4.4805 10.078 10.078 10.078z" fill="#fdfcf2"/>
  <path d="m445.76 268.24c5.6016 0 10.641-5.0391 10.078-10.641 0-5.6016-4.4805-10.078-10.078-10.078-5.6016 0-10.641 5.0391-10.078 10.641-0.5625 5.6016 3.918 10.078 10.078 10.078z" fill="#fdfcf2"/>
  <path d="m422.8 263.76c4.4805-3.3594 5.6016-10.078 2.2383-14.559-3.3594-4.4805-9.5195-5.6016-14.559-2.2383-4.4805 3.3594-5.6016 10.078-2.2383 14.559 3.3594 4.4766 10.078 5.0352 14.559 2.2383z" fill="#fdfcf2"/>
  <path d="m406.56 288.96c4.4805-3.3594 5.6016-10.078 2.2383-14.559-3.3594-4.4805-9.5195-5.6016-14.559-2.2383-4.4805 3.3594-5.6016 10.078-2.2383 14.559 3.9219 4.4766 10.078 5.5977 14.559 2.2383z" fill="#fdfcf2"/>
  <path d="m425.6 312.48c1.6797-5.6016-1.6797-11.199-7.2812-12.879-5.6016-1.6797-11.199 1.1211-12.879 6.7188-1.6797 5.6016 1.6797 11.199 7.2812 12.879 5.0391 1.6797 10.637-1.1211 12.879-6.7188z" fill="#fdfcf2"/>
  <path d="m439.6 286.16c1.6797-5.6016-1.6797-11.199-7.2812-12.879-5.6016-1.6797-11.199 1.1211-12.879 6.7188-1.6797 5.6016 1.6797 11.199 7.2812 12.879 5.0391 1.1211 10.637-1.6797 12.879-6.7188z" fill="#fdfcf2"/>
  <path d="m454.16 312.48c4.4805-3.3594 5.6016-10.078 2.2383-14.559-3.3594-4.4805-9.5195-5.6016-14.559-2.2383-4.4805 3.3594-5.6016 10.078-2.2383 14.559 3.3594 4.4766 10.078 5.5977 14.559 2.2383z" fill="#fdfcf2"/>
  <path d="m446.88 337.68c3.3594-5.0391 2.2383-11.199-2.8008-14.559-4.4805-3.3594-11.199-2.2383-14.559 2.2383-3.3594 5.0391-2.2383 11.199 2.8008 14.559 4.4805 2.8008 10.641 2.2422 14.559-2.2383z" fill="#fdfcf2"/>
  <path d="m417.2 350.56c4.4805-3.3594 5.6016-10.078 2.2383-14.559-3.3594-4.4805-9.5195-5.6016-14.559-2.2383-4.4805 3.3594-5.6016 10.078-2.2383 14.559 3.918 4.4805 10.078 5.6016 14.559 2.2383z" fill="#fdfcf2"/>
  <path d="m387.52 358.4c3.3594-5.0391 2.2383-11.199-2.8008-14.559-4.4805-3.3594-11.199-2.2383-14.559 2.2383-3.3594 5.0391-2.2383 11.199 2.8008 14.559 4.4805 3.3633 10.641 2.2422 14.559-2.2383z" fill="#fdfcf2"/>
  <path d="m396.48 334.88c4.4805-3.3594 5.6016-10.078 2.2383-14.559-3.3594-4.4805-9.5195-5.6016-14.559-2.2383-4.4805 3.3594-5.6016 10.078-2.2383 14.559 3.918 4.4805 10.078 5.5977 14.559 2.2383z" fill="#fdfcf2"/>
  <path d="m385.84 312.48c5.6016-1.6797 8.3984-7.8398 6.7188-13.441-1.6797-5.6016-7.8398-8.3984-12.879-6.7188-5.6016 1.6797-8.3984 7.8398-6.7188 13.441 1.6797 5.5977 7.2773 8.3984 12.879 6.7188z" fill="#fdfcf2"/>
  <path d="m371.28 333.2c1.6797-5.6016-1.6797-11.199-7.2812-12.879-5.6016-1.6797-11.199 1.1211-12.879 6.7188-1.6797 5.6016 1.6797 11.199 7.2812 12.879 5.5977 1.6836 11.199-1.1172 12.879-6.7188z" fill="#fdfcf2"/>
  <path d="m324.8 334.88c3.3594 4.4805 10.078 5.6016 14.559 2.2383 4.4805-3.3594 5.6016-9.5195 2.2383-14.559-3.3594-4.4805-10.078-5.6016-14.559-2.2383-4.4805 3.918-5.5977 10.078-2.2383 14.559z" fill="#fdfcf2"/>
  <path d="m301.28 314.16c-5.6016 1.6797-8.3984 7.8398-6.7188 13.441 1.6797 5.6016 7.8398 8.3984 12.879 6.7188 5.6016-1.6797 8.3984-7.8398 6.7188-13.441-1.6797-5.5977-7.8398-8.3984-12.879-6.7188z" fill="#fdfcf2"/>
  <path d="m281.12 337.12c-5.6016 1.6797-8.3984 7.8398-6.1602 13.441 1.6797 5.0391 7.2812 8.3984 12.879 6.7188 5.6016-1.6797 8.3984-7.8398 6.1602-13.441-1.6797-5.6016-7.2812-8.3984-12.879-6.7188z" fill="#fdfcf2"/>
  <path d="m259.28 358.4c-5.6016 1.6797-8.3984 7.8398-6.7188 13.441 1.6797 5.6016 7.8398 8.3984 12.879 6.7188 5.6016-1.6797 8.3984-7.8398 6.7188-13.441-1.6797-5.0391-7.2812-8.3984-12.879-6.7188z" fill="#fdfcf2"/>
  <path d="m250.88 329.84c-5.6016 1.6797-8.3984 7.8398-6.7188 13.441 1.6797 5.6016 7.8398 8.3984 12.879 6.7188 5.6016-1.6797 8.3984-7.8398 6.7188-13.441-1.6797-5.0391-7.2773-8.3984-12.879-6.7188z" fill="#fdfcf2"/>
  <path d="m268.24 309.68c-4.4805 3.3594-5.6016 10.078-2.2383 14.559 3.3594 4.4805 9.5195 5.6016 14.559 2.2383 4.4805-3.3594 5.6016-10.078 2.2383-14.559-3.3555-3.918-10.078-5.0391-14.559-2.2383z" fill="#fdfcf2"/>
  <path d="m294 285.04c-5.6016 0-10.641 5.0391-10.078 10.641 0 5.6016 4.4805 10.078 10.078 10.078 5.6016 0 10.641-5.0391 10.078-10.641 0-5.0391-4.4766-9.5156-10.078-10.078z" fill="#fdfcf2"/>
  <path d="m316.4 290.64c-4.4805 3.3594-5.6016 10.078-2.2383 14.559 3.3594 4.4805 9.5195 5.6016 14.559 2.2383 4.4805-3.3594 5.6016-10.078 2.2383-14.559-3.3555-4.4805-10.078-5.5977-14.559-2.2383z" fill="#fdfcf2"/>
  <path d="m343.84 309.12c3.3594 4.4805 10.078 5.6016 14.559 2.2383 4.4805-3.3594 5.6016-9.5195 2.2383-14.559-3.3594-4.4805-10.078-5.6016-14.559-2.2383-4.4766 3.3594-5.5977 9.5156-2.2383 14.559z" fill="#fdfcf2"/>
  <path d="m332.08 281.68c3.3594 4.4805 10.078 5.6016 14.559 2.2383 4.4805-3.3594 5.6016-9.5195 2.2383-14.559-3.3594-4.4805-10.078-5.6016-14.559-2.2383-4.4766 3.918-5.5977 10.078-2.2383 14.559z" fill="#fdfcf2"/>
  <path d="m376.32 285.04c4.4805-3.3594 5.6016-10.078 2.2383-14.559-3.3594-4.4805-9.5195-5.6016-14.559-2.2383-4.4805 3.3594-5.6016 10.078-2.2383 14.559 3.3594 4.4805 10.078 5.5977 14.559 2.2383z" fill="#fdfcf2"/>
  <path d="m394.24 260.4c4.4805-3.3594 5.6016-10.078 2.2383-14.559-3.3594-4.4805-9.5195-5.6016-14.559-2.2383-4.4805 3.3594-5.6016 10.078-2.2383 14.559 3.9219 4.4805 10.082 5.0391 14.559 2.2383z" fill="#fdfcf2"/>
  <path d="m351.68 254.8c3.3594 4.4805 10.078 5.6016 14.559 2.2383 4.4805-3.3594 5.6016-9.5195 2.2383-14.559-3.3594-4.4805-10.078-5.6016-14.559-2.2383-4.4766 3.3594-5.5977 10.078-2.2383 14.559z" fill="#fdfcf2"/>
  <path d="m324.24 243.04c-3.3594 5.0391-2.2383 11.199 2.8008 14.559 4.4805 3.3594 11.199 2.2383 14.559-2.2383 3.3594-5.0391 2.2383-11.199-2.8008-14.559-4.4766-3.3594-11.195-2.2422-14.559 2.2383z" fill="#fdfcf2"/>
  <path d="m300.72 232.4c-1.6797 5.6016 1.6797 11.199 7.2812 12.879 5.6016 1.6797 11.199-1.1211 12.879-6.7188 1.6797-5.6016-1.6797-11.199-7.2812-12.879-5.0391-1.6797-10.637 1.6797-12.879 6.7188z" fill="#fdfcf2"/>
  <path d="m278.88 221.76c3.3594 4.4805 10.078 5.6016 14.559 2.2383 4.4805-3.3594 5.6016-9.5195 2.2383-14.559-3.3594-4.4805-10.078-5.6016-14.559-2.2383-4.4766 3.918-5.5977 10.078-2.2383 14.559z" fill="#fdfcf2"/>
  <path d="m305.2 204.4c-1.6797 5.6016 1.6797 11.199 7.2812 12.879 5.6016 1.6797 11.199-1.1211 12.879-6.7188 1.6797-5.6016-1.6797-11.199-7.2812-12.879-5.0391-1.6797-11.199 1.1211-12.879 6.7188z" fill="#fdfcf2"/>
  <path d="m328.72 198.24c1.6797 5.6016 7.8398 8.3984 13.441 6.7188 5.6016-1.6797 8.3984-7.8398 6.7188-12.879-1.6797-5.6016-7.8398-8.3984-13.441-6.7188-5.5977 1.6797-8.3984 7.2812-6.7188 12.879z" fill="#fdfcf2"/>
  <path d="m343.84 211.12c-5.6016 0-10.641 5.0391-10.078 10.641 0 5.6016 4.4805 10.078 10.078 10.078 5.6016 0 10.641-5.0391 10.078-10.641 0.003906-5.5977-4.4766-10.078-10.078-10.078z" fill="#fdfcf2"/>
  <path d="m379.68 231.84c4.4805-3.3594 5.6016-10.078 2.2383-14.559-3.3594-4.4805-9.5195-5.6016-14.559-2.2383-4.4805 3.3594-5.6016 10.078-2.2383 14.559 3.918 4.4766 10.078 5.5977 14.559 2.2383z" fill="#fdfcf2"/>
  <path d="m411.04 235.2c4.4805-3.3594 5.6016-10.078 2.2383-14.559-3.3594-4.4805-9.5195-5.6016-14.559-2.2383-4.4805 3.3594-5.6016 10.078-2.2383 14.559 3.3594 4.4805 10.078 5.5977 14.559 2.2383z" fill="#fdfcf2"/>
  <path d="m394.8 211.68c5.6016-1.6797 8.3984-7.8398 6.7188-13.441-1.6797-5.6016-7.8398-8.3984-12.879-6.7188-5.6016 1.6797-8.3984 7.8398-6.7188 13.441 1.6797 5.5977 7.8398 8.3984 12.879 6.7188z" fill="#fdfcf2"/>
  <path d="m413.28 190.96c5.6016-1.6797 8.3984-7.8398 6.7188-13.441-1.6797-5.6016-7.8398-8.3984-12.879-6.7188-5.6016 1.6797-8.3984 7.8398-6.7188 13.441 1.6758 5.5977 7.8359 8.3984 12.879 6.7188z" fill="#fdfcf2"/>
  <path d="m433.44 197.12c-3.3594-4.4805-10.078-5.6016-14.559-2.2383-4.4805 3.3594-5.6016 9.5195-2.2383 14.559 3.3594 4.4805 10.078 5.6016 14.559 2.2383 4.4766-3.3594 5.5977-9.5195 2.2383-14.559z" fill="#fdfcf2"/>
  <path d="m431.76 240.24c5.6016 1.6797 11.199-1.6797 12.879-7.2812 1.6797-5.6016-1.1211-11.199-6.7188-12.879-5.6016-1.6797-11.199 1.6797-12.879 7.2812-1.6836 5.0391 1.6758 10.641 6.7188 12.879z" fill="#fdfcf2"/>
  <path d="m459.76 217.84c5.6016-1.6797 8.3984-7.8398 6.7188-13.441-1.6797-5.6016-7.8398-8.3984-12.879-6.7188-5.6016 1.6797-8.3984 7.8398-6.7188 13.441 1.6758 5.5977 7.8359 8.3984 12.879 6.7188z" fill="#fdfcf2"/>
  <path d="m482.16 197.12c5.6016-1.6797 8.3984-7.8398 6.7188-13.441-1.6797-5.6016-7.8398-8.3984-12.879-6.7188-5.6016 1.6797-8.3984 7.8398-6.7188 13.441 1.6797 5.0391 7.8398 8.3984 12.879 6.7188z" fill="#fdfcf2"/>
  <path d="m476 155.68c-3.3594-4.4805-10.078-5.6016-14.559-2.2383-4.4805 3.3594-5.6016 9.5195-2.2383 14.559 3.3594 4.4805 10.078 5.6016 14.559 2.2383 3.918-3.3594 5.0391-9.5195 2.2383-14.559z" fill="#fdfcf2"/>
  <path d="m453.6 152.32c5.6016-1.6797 8.3984-7.8398 6.7188-13.441-1.6797-5.6016-7.8398-8.3984-12.879-6.7188-5.6016 1.6797-8.3984 7.8398-6.7188 13.441 2.2383 5.5977 7.8359 8.3984 12.879 6.7188z" fill="#fdfcf2"/>
  <path d="m476.56 131.04c4.4805-3.3594 5.6016-10.078 2.2383-14.559-3.3594-4.4805-9.5195-5.6016-14.559-2.2383-4.4805 3.3594-5.6016 10.078-2.2383 14.559 3.3594 3.918 9.5195 5.0391 14.559 2.2383z" fill="#fdfcf2"/>
  <path d="m472.08 96.32c5.6016-1.6797 8.3984-7.8398 6.7188-13.441-1.6797-5.6016-7.8398-8.3984-12.879-6.7188-5.6016 1.6797-8.3984 7.8398-6.7188 13.441 1.6797 5.5977 7.2812 8.3984 12.879 6.7188z" fill="#fdfcf2"/>
  <path d="m451.36 117.6c5.6016-1.6797 8.3984-7.8398 6.7188-13.441-1.6797-5.6016-7.8398-8.3984-12.879-6.7188-5.6016 1.6797-8.3984 7.8398-6.7188 13.441 1.6797 5.0391 7.2812 7.8359 12.879 6.7188z" fill="#fdfcf2"/>
  <path d="m430.64 138.32c5.6016-1.6797 8.3984-7.8398 6.7188-13.441-1.6797-5.6016-7.8398-8.3984-12.879-6.7188-5.6016 1.6797-8.3984 7.8398-6.7188 13.441 1.6797 5.0391 7.2773 8.3984 12.879 6.7188z" fill="#fdfcf2"/>
  <path d="m433.44 171.36c5.6016-1.6797 8.3984-7.8398 6.7188-13.441-1.6797-5.6016-7.8398-8.3984-12.879-6.7188-5.6016 1.6797-8.3984 7.8398-6.7188 13.441 1.6758 5.5977 7.2773 8.3984 12.879 6.7188z" fill="#fdfcf2"/>
  <path d="m454.16 176.4c-3.3594-4.4805-10.078-5.6016-14.559-2.2383-4.4805 3.3594-5.6016 9.5195-2.2383 14.559 3.3594 4.4805 10.078 5.6016 14.559 2.2383 4.4766-3.918 5.5977-10.078 2.2383-14.559z" fill="#fdfcf2"/>
  <path d="m409.36 159.04c5.6016-1.6797 8.3984-7.8398 6.7188-13.441-1.6797-5.6016-7.8398-8.3984-12.879-6.7188-5.6016 1.6797-8.3984 7.8398-6.7188 13.441 1.6797 5.6016 7.8398 8.3984 12.879 6.7188z" fill="#fdfcf2"/>
  <path d="m388.64 179.76c5.6016-1.6797 8.3984-7.8398 6.7188-13.441-1.6797-5.6016-7.8398-8.3984-12.879-6.7188-5.6016 1.6797-8.3984 7.8398-6.7188 13.441 1.6797 5.5977 7.2773 8.3984 12.879 6.7188z" fill="#fdfcf2"/>
  <path d="m354.48 187.6c-1.6797 5.6016 1.6797 11.199 7.2812 12.879 5.6016 1.6797 11.199-1.1211 12.879-6.7188 1.6797-5.6016-1.6797-11.199-7.2812-12.879-5.0391-1.6836-11.199 1.1172-12.879 6.7188z" fill="#fdfcf2"/>
  <path d="m306.88 173.6c0 5.6016 5.0391 10.641 10.641 10.078 5.6016 0 10.078-4.4805 10.078-10.078 0-5.6016-5.0391-10.641-10.641-10.078-5.5977-0.5625-10.078 4.4766-10.078 10.078z" fill="#fdfcf2"/>
  <path d="m282.24 189.28c1.6797 5.6016 7.8398 8.3984 13.441 6.7188 5.0391-1.6797 8.3984-7.8398 6.7188-12.879-1.6797-5.6016-7.8398-8.3984-13.441-6.7188-5.0352 1.6758-8.3984 7.2773-6.7188 12.879z" fill="#fdfcf2"/>
  <path d="m256.48 202.16c3.3594 4.4805 10.078 5.6016 14.559 2.2383 4.4805-3.3594 5.6016-9.5195 2.2383-14.559-3.3594-4.4805-10.078-5.6016-14.559-2.2383-4.4805 3.3594-5.5977 10.078-2.2383 14.559z" fill="#fdfcf2"/>
  <path d="m228.48 198.8c-3.3594 5.0391-2.2383 11.199 2.8008 14.559 4.4805 3.3594 11.199 2.2383 14.559-2.2383 3.3594-5.0391 2.2383-11.199-2.8008-14.559-5.0391-3.3633-11.199-2.2422-14.559 2.2383z" fill="#fdfcf2"/>
  <path d="m234.64 180.88c3.3594 4.4805 10.078 5.6016 14.559 1.6797 4.4805-3.3594 5.6016-9.5195 2.2383-14.559-3.3594-4.4805-10.078-5.6016-14.559-1.6797-4.4805 3.918-5.0391 10.078-2.2383 14.559z" fill="#fdfcf2"/>
  <path d="m263.2 171.36c3.3594 4.4805 10.078 5.6016 14.559 2.2383 4.4805-3.3594 5.6016-9.5195 2.2383-14.559-3.3594-4.4805-10.078-5.6016-14.559-2.2383-4.4766 3.3594-5.5977 10.078-2.2383 14.559z" fill="#fdfcf2"/>
  <path d="m285.04 151.76c0 5.6016 5.0391 10.641 10.641 10.078 5.6016 0 10.078-4.4805 10.078-10.078 0-5.6016-5.0391-10.641-10.641-10.078-5.5977-0.003906-10.078 4.4766-10.078 10.078z" fill="#fdfcf2"/>
  <path d="m265.44 136.64c3.3594 4.4805 10.078 5.6016 14.559 2.2383 4.4805-3.3594 5.6016-9.5195 2.2383-14.559-3.3594-4.4805-10.078-5.6016-14.559-2.2383-4.4805 3.3594-5.6016 9.5195-2.2383 14.559z" fill="#fdfcf2"/>
  <path d="m242.48 112c1.6797 5.6016 7.8398 8.3984 13.441 6.7188s8.3984-7.8398 6.7188-12.879c-1.6797-5.6016-7.8398-8.3984-13.441-6.7188-5.5977 1.6797-8.3984 7.2773-6.7188 12.879z" fill="#fdfcf2"/>
  <path d="m220.64 84c-1.6797 5.6016 1.6797 11.199 7.2812 12.879 5.6016 1.6797 11.199-1.1211 12.879-6.7188 1.6797-5.6016-1.6797-11.199-7.2812-12.879-5.0391-1.6797-10.641 1.1172-12.879 6.7188z" fill="#fdfcf2"/>
  <path d="m203.28 57.121c-4.4805 3.3594-5.6016 10.078-2.2383 14.559 3.3594 4.4805 9.5195 5.6016 14.559 2.2383 4.4805-3.3594 5.6016-10.078 2.2383-14.559-3.918-4.4805-10.078-5.5977-14.559-2.2383z" fill="#fdfcf2"/>
  <path d="m184.24 33.602c-5.6016 1.6797-8.3984 7.8398-6.7188 13.441 1.6797 5.6016 7.8398 8.3984 12.879 6.7188 5.6016-1.6797 8.3984-7.8398 6.7188-13.441-1.6758-5.0391-7.2773-7.8398-12.879-6.7188z" fill="#fdfcf2"/>
  <path d="m166.32 58.238c-5.6016-1.6797-11.199 1.6797-12.879 7.2812-1.6797 5.6016 1.1211 11.199 6.7188 12.879 5.6016 1.6797 11.199-1.6797 12.879-7.2812 1.6797-5.0391-1.6797-10.637-6.7188-12.879z" fill="#fdfcf2"/>
  <path d="m178.08 82.32c1.6797 5.6016 7.8398 8.3984 13.441 6.7188 5.6016-1.6797 8.3984-7.8398 6.7188-12.879-1.6797-5.6016-7.8398-8.3984-13.441-6.7188-5.5977 1.6797-8.3984 7.2773-6.7188 12.879z" fill="#fdfcf2"/>
  <path d="m198.8 97.441c-1.6797 5.6016 1.6797 11.199 7.2812 12.879 5.6016 1.6797 11.199-1.1211 12.879-6.7188 1.6797-5.6016-1.6797-11.199-7.2812-12.879-5.6016-1.1211-11.199 1.6758-12.879 6.7188z" fill="#fdfcf2"/>
  <path d="m220.64 115.92c-3.3594 5.0391-2.2383 11.199 2.8008 14.559 4.4805 3.3594 11.199 2.2383 14.559-2.2383 3.3594-5.0391 2.2383-11.199-2.8008-14.559-5.0391-2.8047-11.199-2.2422-14.559 2.2383z" fill="#fdfcf2"/>
  <path d="m240.24 147.28c1.6797 5.6016 7.8398 8.3984 13.441 6.7188 5.6016-1.6797 8.3984-7.8398 6.7188-12.879-1.6797-5.6016-7.8398-8.3984-13.441-6.7188-5.5977 1.6758-8.3984 7.8359-6.7188 12.879z" fill="#fdfcf2"/>
  <path d="m212.24 156.8c1.6797 5.6016 7.8398 8.3984 13.441 6.7188 5.6016-1.6797 8.3984-7.8398 6.7188-12.879-1.6797-5.6016-7.8398-8.3984-13.441-6.7188-5.5977 1.6797-8.3984 7.2773-6.7188 12.879z" fill="#fdfcf2"/>
  <path d="m190.96 132.72c0 5.6016 5.0391 10.641 10.641 10.078 5.6016 0 10.078-4.4805 10.078-10.078 0-5.6016-5.0391-10.641-10.641-10.078-5.5977 0-10.078 4.4805-10.078 10.078z" fill="#fdfcf2"/>
  <path d="m186.48 152.88c-4.4805 3.3594-5.6016 10.078-2.2383 14.559 3.3594 4.4805 9.5195 5.6016 14.559 2.2383 4.4805-3.3594 5.6016-10.078 2.2383-14.559-3.3594-4.4766-10.078-5.5977-14.559-2.2383z" fill="#fdfcf2"/>
  <path d="m167.44 129.92c-5.6016 1.6797-8.3984 7.8398-6.7188 13.441 1.6797 5.6016 7.8398 8.3984 12.879 6.7188 5.6016-1.6797 8.3984-7.8398 6.7188-13.441-1.6797-5.6016-7.8398-8.4023-12.879-6.7188z" fill="#fdfcf2"/>
  <path d="m171.36 108.64c-1.6797 5.6016 1.6797 11.199 7.2812 12.879 5.6016 1.6797 11.199-1.1211 12.879-6.7188 1.6797-5.6016-1.6797-11.199-7.2812-12.879-5.5977-1.6836-11.199 1.6797-12.879 6.7188z" fill="#fdfcf2"/>
  <path d="m154 99.121c3.3594 4.4805 10.078 5.6016 14.559 2.2383 4.4805-3.3594 5.6016-9.5195 2.2383-14.559-3.3594-4.4805-10.078-5.6016-14.559-2.2383-4.4766 3.3594-5.5977 9.5156-2.2383 14.559z" fill="#fdfcf2"/>
  <path d="m138.32 82.879c-5.6016 0-10.641 5.0391-10.078 10.641 0 5.6016 4.4805 10.078 10.078 10.078 5.6016 0 10.641-5.0391 10.078-10.641 0-5.5977-4.4766-10.078-10.078-10.078z" fill="#fdfcf2"/>
  <path d="m110.32 108.08c-5.6016 1.6797-8.3984 7.8398-6.7188 13.441 1.6797 5.6016 7.8398 8.3984 12.879 6.7188 5.6016-1.6797 8.3984-7.8398 6.7188-13.441-1.6797-5.5977-7.2773-8.3984-12.879-6.7188z" fill="#fdfcf2"/>
  <path d="m142.8 109.76c-4.4805 3.3594-5.6016 10.078-2.2383 14.559 3.3594 4.4805 9.5195 5.6016 14.559 2.2383 4.4805-3.3594 5.6016-10.078 2.2383-14.559-3.3594-4.4805-9.5195-5.6016-14.559-2.2383z" fill="#fdfcf2"/>
  <path d="m128.24 147.28c3.3594 4.4805 10.078 5.6016 14.559 2.2383 4.4805-3.3594 5.6016-9.5195 2.2383-14.559-3.3594-4.4805-10.078-5.6016-14.559-2.2383-4.4766 3.3555-5.5977 10.078-2.2383 14.559z" fill="#fdfcf2"/>
  <path d="m151.76 157.92c-3.3594 5.0391-2.2383 11.199 2.8008 14.559 4.4805 3.3594 11.199 2.2383 14.559-2.2383 3.3594-5.0391 2.2383-11.199-2.8008-14.559-5.0391-3.3633-11.199-2.2422-14.559 2.2383z" fill="#fdfcf2"/>
  <path d="m174.72 181.44c-3.3594 5.0391-2.2383 11.199 2.8008 14.559 4.4805 3.3594 11.199 2.2383 14.559-2.2383 3.3594-5.0391 2.2383-11.199-2.8008-14.559-5.0391-3.3633-11.199-2.2422-14.559 2.2383z" fill="#fdfcf2"/>
  <path d="m208.88 174.72c-4.4805 3.3594-5.6016 10.078-2.2383 14.559 3.3594 4.4805 9.5195 5.6016 14.559 2.2383 4.4805-3.3594 5.6016-10.078 2.2383-14.559-3.918-4.4766-10.078-5.0352-14.559-2.2383z" fill="#fdfcf2"/>
  <path d="m197.68 204.4c-3.3594 5.0391-2.2383 11.199 2.8008 14.559 4.4805 3.3594 11.199 2.2383 14.559-2.2383 3.3594-5.0391 2.2383-11.199-2.8008-14.559-4.4766-3.3594-11.199-2.2383-14.559 2.2383z" fill="#fdfcf2"/>
  <path d="m221.2 227.36c-3.3594 5.0391-2.2383 11.199 2.8008 14.559 4.4805 3.3594 11.199 2.2383 14.559-2.2383 3.3594-5.0391 2.2383-11.199-2.8008-14.559-5.0391-2.8008-11.199-2.2422-14.559 2.2383z" fill="#fdfcf2"/>
  <path d="m244.16 250.88c-3.3594 5.0391-2.2383 11.199 2.8008 14.559 4.4805 3.3594 11.199 2.2383 14.559-2.2383 3.3594-5.0391 2.2383-11.199-2.8008-14.559-4.4805-3.3594-11.199-2.2422-14.559 2.2383z" fill="#fdfcf2"/>
  <path d="m250.88 220.08c-3.3594 5.0391-2.2383 11.199 2.8008 14.559 4.4805 3.3594 11.199 2.2383 14.559-2.2383 3.3594-5.0391 2.2383-11.199-2.8008-14.559s-11.199-2.2383-14.559 2.2383z" fill="#fdfcf2"/>
  <path d="m273.84 241.36c-1.6797 5.6016 1.6797 11.199 7.2812 12.879 5.6016 1.6797 11.199-1.1211 12.879-6.7188 1.6797-5.6016-1.6797-11.199-7.2812-12.879-5.5977-1.1211-11.199 1.6797-12.879 6.7188z" fill="#fdfcf2"/>
  <path d="m299.04 268.24c0 5.6016 5.0391 10.641 10.641 10.078 5.6016 0 10.078-4.4805 10.078-10.078 0-5.6016-5.0391-10.641-10.641-10.078-5.0391 0-10.078 4.4805-10.078 10.078z" fill="#fdfcf2"/>
  <path d="m269.92 267.68c-1.6797 5.6016 1.6797 11.199 7.2812 12.879 5.6016 1.6797 11.199-1.1211 12.879-6.7188 1.6797-5.6016-1.6797-11.199-7.2812-12.879-5.0391-1.6797-10.641 1.1172-12.879 6.7188z" fill="#fdfcf2"/>
  <path d="m254.8 297.92c3.3594 4.4805 10.078 5.6016 14.559 2.2383 4.4805-3.3594 5.6016-9.5195 2.2383-14.559-3.3594-4.4805-10.078-5.6016-14.559-2.2383-4.4805 3.918-5.0391 10.078-2.2383 14.559z" fill="#fdfcf2"/>
  <path d="m236.32 316.96c3.3594 4.4805 10.078 5.6016 14.559 2.2383 4.4805-3.3594 5.6016-9.5195 2.2383-14.559-3.3594-4.4805-10.078-5.6016-14.559-2.2383-4.4805 3.3594-5.5977 9.5195-2.2383 14.559z" fill="#fdfcf2"/>
  <path d="m217.28 335.44c3.3594 4.4805 10.078 5.6016 14.559 2.2383 4.4805-3.3594 5.6016-9.5195 2.2383-14.559-3.3594-4.4805-10.078-5.6016-14.559-2.2383-4.4805 3.3555-5.0391 10.078-2.2383 14.559z" fill="#fdfcf2"/>
  <path d="m198.8 354.48c3.3594 4.4805 10.078 5.6016 14.559 2.2383 4.4805-3.3594 5.6016-9.5195 2.2383-14.559-3.3594-4.4805-10.078-5.6016-14.559-2.2383-4.4805 3.3594-5.5977 9.5195-2.2383 14.559z" fill="#fdfcf2"/>
  <path d="m178.08 366.8c0 5.6016 5.0391 10.641 10.641 10.078 5.6016 0 10.078-4.4805 10.078-10.078 0-5.6016-5.0391-10.641-10.641-10.078-5.5977-0.003906-10.078 4.4766-10.078 10.078z" fill="#fdfcf2"/>
  <path d="m161.28 391.44c3.3594 4.4805 10.078 5.6016 14.559 2.2383 4.4805-3.3594 5.6016-9.5195 2.2383-14.559-3.3594-4.4805-10.078-5.6016-14.559-2.2383-4.4805 3.918-5.5977 10.078-2.2383 14.559z" fill="#fdfcf2"/>
  <path d="m147.84 394.24c-5.6016 1.6797-8.3984 7.8398-6.7188 13.441 1.6797 5.0391 7.8398 8.3984 12.879 6.7188 5.6016-1.6797 8.3984-7.8398 6.7188-13.441-1.6797-5.5977-7.2773-8.3984-12.879-6.7188z" fill="#fdfcf2"/>
  <path d="m128.8 412.72c-5.6016 1.6797-8.3984 7.8398-6.7188 13.441 1.6797 5.6016 7.8398 8.3984 12.879 6.7188 5.6016-1.6797 8.3984-7.8398 6.7188-13.441-1.6797-5.0391-7.2812-7.8359-12.879-6.7188z" fill="#fdfcf2"/>
  <path d="m103.04 445.2c1.6797 5.6016 7.8398 8.3984 13.441 6.7188 5.6016-1.6797 8.3984-7.8398 6.7188-12.879-1.6797-5.6016-7.8398-8.3984-13.441-6.7188-5.0391 1.6797-8.3984 7.8398-6.7188 12.879z" fill="#fdfcf2"/>
  <path d="m140 448.56c3.3594 4.4805 10.078 5.6016 14.559 2.2383 4.4805-3.3594 5.6016-9.5195 2.2383-14.559-3.3594-4.4805-10.078-5.6016-14.559-2.2383-4.4766 3.3594-5.5977 9.5195-2.2383 14.559z" fill="#fdfcf2"/>
  <path d="m129.36 472.64c3.3594 4.4805 10.078 5.6016 14.559 1.6797 4.4805-3.3594 5.6016-9.5195 2.2383-14.559-3.3594-4.4805-10.078-5.6016-14.559-1.6797-4.4766 3.918-5.5977 10.078-2.2383 14.559z" fill="#fdfcf2"/>
  <path d="m154 497.28c3.3594 4.4805 10.078 5.6016 14.559 2.2383 4.4805-3.3594 5.6016-9.5195 2.2383-14.559-3.3594-4.4805-10.078-5.6016-14.559-2.2383-4.4766 3.918-5.5977 10.078-2.2383 14.559z" fill="#fdfcf2"/>
  <path d="m164.08 464.24c3.3594 4.4805 10.078 5.6016 14.559 2.2383 4.4805-3.3594 5.6016-9.5195 2.2383-14.559-3.3594-4.4805-10.078-5.6016-14.559-2.2383-4.4766 3.9219-5.5977 10.082-2.2383 14.559z" fill="#fdfcf2"/>
  <path d="m179.76 476c-4.4805 3.3594-5.6016 10.078-2.2383 14.559 3.3594 4.4805 9.5195 5.6016 14.559 2.2383 4.4805-3.3594 5.6016-10.078 2.2383-14.559-3.3594-4.4766-10.082-5.0391-14.559-2.2383z" fill="#fdfcf2"/>
  <path d="m178.64 521.92c3.3594 4.4805 10.078 5.6016 14.559 2.2383 4.4805-3.3594 5.6016-9.5195 2.2383-14.559-3.3594-4.4805-10.078-5.6016-14.559-2.2383-4.4805 3.918-5.5977 10.078-2.2383 14.559z" fill="#fdfcf2"/>
  <path d="m210 482.72c-5.6016 0-10.641 5.0391-10.078 10.641 0 5.6016 4.4805 10.078 10.078 10.078 5.6016 0 10.641-5.0391 10.078-10.641 0-5.5977-4.4766-10.078-10.078-10.078z" fill="#fdfcf2"/>
  <path d="m223.44 477.68c3.3594 4.4805 10.078 5.6016 14.559 1.6797 4.4805-3.3594 5.6016-9.5195 2.2383-14.559-3.3594-4.4805-10.078-5.6016-14.559-1.6797-4.4805 3.3594-5.6016 10.078-2.2383 14.559z" fill="#fdfcf2"/>
  <path d="m195.44 469.28c3.3594 4.4805 10.078 5.6016 14.559 2.2383 4.4805-3.3594 5.6016-9.5195 2.2383-14.559-3.3594-4.4805-10.078-5.6016-14.559-2.2383-4.4805 3.3555-5.6016 9.5156-2.2383 14.559z" fill="#fdfcf2"/>
  <path d="m226.24 431.2c-5.6016 0-10.641 5.0391-10.078 10.641 0 5.6016 4.4805 10.078 10.078 10.078 5.6016 0 10.641-5.0391 10.078-10.641 0.003906-5.5977-4.4766-10.078-10.078-10.078z" fill="#fdfcf2"/>
  <path d="m196.56 424.48c-5.6016 0-10.641 5.0391-10.078 10.641 0 5.6016 4.4805 10.078 10.078 10.078 5.6016 0 10.641-5.0391 10.078-10.641 0.003906-5.5977-4.4766-10.078-10.078-10.078z" fill="#fdfcf2"/>
  <path d="m162.96 431.2c3.3594 4.4805 10.078 5.6016 14.559 1.6797 4.4805-3.3594 5.6016-9.5195 2.2383-14.559-3.3594-4.4805-10.078-5.6016-14.559-1.6797-4.4805 3.3594-5.5977 9.5195-2.2383 14.559z" fill="#fdfcf2"/>
  <path d="m182 409.36c3.3594 4.4805 10.078 5.6016 14.559 1.6797 4.4805-3.3594 5.6016-9.5195 2.2383-14.559-3.3594-4.4805-10.078-5.6016-14.559-1.6797-3.918 3.3594-5.0391 10.078-2.2383 14.559z" fill="#fdfcf2"/>
  <path d="m203.28 388.08c3.3594 4.4805 10.078 5.6016 14.559 2.2383 4.4805-3.3594 5.6016-9.5195 2.2383-14.559-3.3594-4.4805-10.078-5.6016-14.559-2.2383-4.4805 3.3594-5.5977 10.082-2.2383 14.559z" fill="#fdfcf2"/>
  <path d="m224.56 366.8c3.3594 4.4805 10.078 5.6016 14.559 2.2383 4.4805-3.3594 5.6016-9.5195 2.2383-14.559-3.3594-4.4805-10.078-5.6016-14.559-2.2383-4.4766 3.918-5.5977 10.078-2.2383 14.559z" fill="#fdfcf2"/>
  <path d="m237.44 380.24c-5.6016 1.6797-8.3984 7.8398-6.7188 13.441 1.6797 5.6016 7.8398 8.3984 12.879 6.7188 5.6016-1.6797 8.3984-7.8398 6.7188-13.441-1.6797-5.5977-7.8398-8.3984-12.879-6.7188z" fill="#fdfcf2"/>
  <path d="m218.4 401.52c-5.6016 0-10.641 5.0391-10.078 10.641 0 5.6016 4.4805 10.078 10.078 10.078 5.6016 0 10.641-5.0391 10.078-10.641 0.003907-5.0391-4.4766-9.5195-10.078-10.078z" fill="#fdfcf2"/>
  <path d="m247.52 408.24c-5.6016 0-10.641 5.0391-10.078 10.641 0 5.6016 4.4805 10.078 10.078 10.078 5.6016 0 10.641-5.0391 10.078-10.641 0.003906-5.5977-4.4766-10.078-10.078-10.078z" fill="#fdfcf2"/>
  <path d="m246.96 454.16c3.3594 4.4805 10.078 5.6016 14.559 1.6797 4.4805-3.3594 5.6016-9.5195 2.2383-14.559-3.3594-4.4805-10.078-5.6016-14.559-1.6797-4.4805 3.3594-5.5977 10.078-2.2383 14.559z" fill="#fdfcf2"/>
  <path d="m267.68 432.88c3.3594 4.4805 10.078 5.6016 14.559 2.2383 4.4805-3.3594 5.6016-9.5195 2.2383-14.559-3.3594-4.4805-10.078-5.6016-14.559-2.2383-3.918 3.3594-5.0391 10.078-2.2383 14.559z" fill="#fdfcf2"/>
  <path d="m261.52 403.2c3.3594 4.4805 10.078 5.6016 14.559 1.6797 4.4805-3.3594 5.6016-9.5195 2.2383-14.559-3.3594-4.4805-10.078-5.6016-14.559-1.6797-4.4766 3.918-5.5977 10.078-2.2383 14.559z" fill="#fdfcf2"/>
  <path d="m290.64 409.92c3.3594 4.4805 10.078 5.6016 14.559 2.2383 4.4805-3.3594 5.6016-9.5195 2.2383-14.559-3.3594-4.4805-10.078-5.6016-14.559-2.2383-4.4805 3.918-5.5977 10.078-2.2383 14.559z" fill="#fdfcf2"/>
  <path d="m283.92 381.36c3.3594 4.4805 10.078 5.6016 14.559 2.2383 4.4805-3.3594 5.6016-9.5195 2.2383-14.559-3.3594-4.4805-10.078-5.6016-14.559-2.2383-4.4805 3.918-5.6016 10.078-2.2383 14.559z" fill="#fdfcf2"/>
  <path d="m313.6 387.52c3.3594 4.4805 10.078 5.6016 14.559 1.6797 4.4805-3.3594 5.6016-9.5195 2.2383-14.559-3.3594-4.4805-10.078-5.6016-14.559-1.6797-4.4805 3.3594-5.6016 9.5195-2.2383 14.559z" fill="#fdfcf2"/>
  <path d="m306.32 358.96c3.3594 4.4805 10.078 5.6016 14.559 2.2383 4.4805-3.3594 5.6016-9.5195 2.2383-14.559-3.3594-4.4805-10.078-5.6016-14.559-2.2383-4.4805 3.918-5.5977 10.078-2.2383 14.559z" fill="#fdfcf2"/>
  <path d="m338.8 349.44c-4.4805 3.3594-5.6016 10.078-2.2383 14.559 3.3594 4.4805 9.5195 5.6016 14.559 2.2383 4.4805-3.3594 5.6016-10.078 2.2383-14.559-3.3594-4.4805-9.5195-5.6016-14.559-2.2383z" fill="#fdfcf2"/>
  <path d="m359.52 370.72c-1.6797 5.6016 1.6797 11.199 7.2812 12.879 5.6016 1.6797 11.199-1.1211 12.879-6.7188 1.6797-5.5977-1.6797-11.199-7.2812-12.879-5.0391-1.6797-10.637 1.1211-12.879 6.7188z" fill="#fdfcf2"/>
  <path d="m396.48 402.64c4.4805-3.3594 5.6016-10.078 2.2383-14.559-3.3594-4.4805-9.5195-5.6016-14.559-2.2383-4.4805 3.3594-5.6016 10.078-2.2383 14.559 3.3594 4.4766 9.5195 5.5977 14.559 2.2383z" fill="#fdfcf2"/>
  <path d="m416.64 423.36c4.4805-3.3594 5.6016-10.078 2.2383-14.559-3.3594-4.4805-9.5195-5.6016-14.559-2.2383-4.4805 3.3594-5.6016 10.078-2.2383 14.559 3.3594 4.4805 10.078 5.0391 14.559 2.2383z" fill="#fdfcf2"/>
  <path d="m441.28 435.12c0-5.6016-5.0391-10.641-10.641-10.078-5.6016 0-10.078 4.4805-10.078 10.078 0 5.6016 5.0391 10.641 10.641 10.078 5.5977 0 10.078-4.4805 10.078-10.078z" fill="#fdfcf2"/>
  <path d="m460.88 458.64c1.6797-5.6016-1.6797-11.199-7.2812-12.879-5.6016-1.6797-11.199 1.1211-12.879 6.7188-1.6797 5.6016 1.6797 11.199 7.2812 12.879s11.199-1.6797 12.879-6.7188z" fill="#fdfcf2"/>
  <path d="m479.92 481.6c3.3594-5.0391 2.2383-11.199-2.8008-14.559-4.4805-3.3594-11.199-2.2383-14.559 2.2383-3.3594 5.0391-2.2383 11.199 2.8008 14.559 5.0352 3.3594 11.195 2.2383 14.559-2.2383z" fill="#fdfcf2"/>
  <path d="m495.6 448.56c-1.6797-5.6016-7.8398-8.3984-13.441-6.7188-5.6016 1.6797-8.3984 7.8398-6.7188 12.879 1.6797 5.6016 7.8398 8.3984 13.441 6.7188 5.0391-1.6758 7.8359-7.2773 6.7188-12.879z" fill="#fdfcf2"/>
  <path d="m474.32 428.4c-1.6797-5.6016-7.8398-8.3984-13.441-6.7188-5.6016 1.6797-8.3984 7.8398-6.7188 12.879 1.6797 5.6016 7.8398 8.3984 13.441 6.7188 5.5977-2.2383 8.3984-7.8359 6.7188-12.879z" fill="#fdfcf2"/>
  <path d="m478.8 411.04c4.4805-3.3594 5.6016-10.078 2.2383-14.559-3.3594-4.4805-9.5195-5.6016-14.559-2.2383-4.4805 3.3594-5.6016 10.078-2.2383 14.559 3.3594 4.4805 10.078 5.5977 14.559 2.2383z" fill="#fdfcf2"/>
  <path d="m458.08 390.88c4.4805-3.3594 5.6016-10.078 2.2383-14.559-3.3594-4.4805-9.5195-5.6016-14.559-2.2383-4.4805 3.3594-5.6016 10.078-2.2383 14.559 3.9219 4.4805 10.082 5.0391 14.559 2.2383z" fill="#fdfcf2"/>
  <path d="m453.6 407.68c-1.6797-5.6016-7.8398-8.3984-13.441-6.7188-5.6016 1.6797-8.3984 7.8398-6.7188 12.879 1.6797 5.6016 7.8398 8.3984 13.441 6.7188 5.5977-1.6797 8.3984-7.2773 6.7188-12.879z" fill="#fdfcf2"/>
  <path d="m434 390.32c0-5.6016-5.0391-10.641-10.641-10.078-5.6016 0-10.078 4.4805-10.078 10.078 0 5.6016 5.0391 10.641 10.641 10.078 5.5977 0 10.078-4.4766 10.078-10.078z" fill="#fdfcf2"/>
  <path d="m411.04 363.44c-3.3594-4.4805-10.078-5.6016-14.559-2.2383-4.4805 3.3594-5.6016 9.5195-2.2383 14.559 3.3594 4.4805 10.078 5.6016 14.559 2.2383 4.4805-3.3594 5.0391-10.078 2.2383-14.559z" fill="#fdfcf2"/>
  <path d="m437.92 370.16c4.4805-3.3594 5.6016-10.078 2.2383-14.559-3.3594-4.4805-9.5195-5.6016-14.559-2.2383-4.4805 3.3594-5.6016 10.078-2.2383 14.559 3.3555 4.4766 10.078 5.5977 14.559 2.2383z" fill="#fdfcf2"/>
  <path d="m469.84 349.44c-1.6797-5.6016-7.8398-8.3984-13.441-6.7188-5.6016 1.6797-8.3984 7.8398-6.7188 12.879 1.6797 5.6016 7.8398 8.3984 13.441 6.7188 5.5977-1.6797 8.3984-7.2812 6.7188-12.879z" fill="#fdfcf2"/>
  <path d="m473.76 332.64c4.4805-3.3594 5.6016-10.078 2.2383-14.559-3.3594-4.4805-9.5195-5.6016-14.559-2.2383-4.4805 3.3594-5.6016 10.078-2.2383 14.559 3.918 4.4766 10.078 5.0391 14.559 2.2383z" fill="#fdfcf2"/>
  <path d="m493.92 352.24c4.4805-3.3594 5.6016-10.078 2.2383-14.559-3.3594-4.4805-9.5195-5.6016-14.559-2.2383-4.4805 3.3594-5.6016 10.078-2.2383 14.559 3.3555 4.4805 9.5156 5.6016 14.559 2.2383z" fill="#fdfcf2"/>
  <path d="m490.56 370.72c-1.6797-5.6016-7.8398-8.3984-13.441-6.7188-5.6016 1.6797-8.3984 7.8398-6.7188 12.879 1.6797 5.6016 7.8398 8.3984 13.441 6.7188 5.6016-1.6758 8.3984-7.2773 6.7188-12.879z" fill="#fdfcf2"/>
  <path d="m512.4 394.8c0-5.6016-5.0391-10.641-10.641-10.078-5.6016 0-10.078 4.4805-10.078 10.078 0 5.6016 5.0391 10.641 10.641 10.078 5.0391 0 9.5195-4.4805 10.078-10.078z" fill="#fdfcf2"/>
  <path d="m513.52 371.84c4.4805-3.3594 5.6016-10.078 2.2383-14.559-3.3594-4.4805-9.5195-5.6016-14.559-2.2383-4.4805 3.3594-5.6016 10.078-2.2383 14.559 3.3594 4.4766 10.078 5.5977 14.559 2.2383z" fill="#fdfcf2"/>
  <path d="m533.12 392c4.4805-3.3594 5.6016-10.078 2.2383-14.559-3.3594-4.4805-9.5195-5.6016-14.559-2.2383-4.4805 3.3594-5.6016 10.078-2.2383 14.559 3.918 4.4766 10.078 5.5977 14.559 2.2383z" fill="#fdfcf2"/>
  <path d="m555.52 409.36c3.3594-5.0391 2.2383-11.199-2.8008-14.559-4.4805-3.3594-11.199-2.2383-14.559 2.2383-3.3594 5.0391-2.2383 11.199 2.8008 14.559 5.0391 3.3633 11.199 2.2422 14.559-2.2383z" fill="#fdfcf2"/>
  <path d="m576.8 426.16c1.6797-5.6016-1.6797-11.199-7.2812-12.879-5.6016-1.6797-11.199 1.1211-12.879 6.7188-1.6797 5.6016 1.6797 11.199 7.2812 12.879 5.5977 1.6797 11.199-1.1172 12.879-6.7188z" fill="#fdfcf2"/>
  <path d="m596.96 442.96c0-5.6016-5.0391-10.641-10.641-10.078-5.6016 0-10.078 4.4805-10.078 10.078 0 5.6016 5.0391 10.641 10.641 10.078 5.5977 0 10.078-4.4805 10.078-10.078z" fill="#fdfcf2"/>
  <path d="m573.44 451.92c-3.3594-4.4805-10.078-5.6016-14.559-2.2383-4.4805 3.3594-5.6016 9.5195-2.2383 14.559 3.3594 4.4805 10.078 5.6016 14.559 2.2383 4.4766-3.3594 5.5977-10.082 2.2383-14.559z" fill="#fdfcf2"/>
  <path d="m551.04 430.64c-3.3594-4.4805-10.078-5.6016-14.559-2.2383-4.4805 3.3594-5.6016 9.5195-2.2383 14.559 3.3594 4.4805 10.078 5.6016 14.559 2.2383 4.4805-3.3594 5.5977-10.078 2.2383-14.559z" fill="#fdfcf2"/>
  <path d="m532 412.16c-1.6797-5.6016-7.8398-8.3984-13.441-6.7188-5.6016 1.6797-8.3984 7.8398-6.7188 12.879 1.6797 5.6016 7.8398 8.3984 13.441 6.7188 5.5977-1.6797 8.3984-7.8398 6.7188-12.879z" fill="#fdfcf2"/>
  <path d="m498.96 431.2c4.4805-3.3594 5.6016-10.078 2.2383-14.559-3.3594-4.4805-9.5195-5.6016-14.559-2.2383-4.4805 3.3594-5.6016 10.078-2.2383 14.559 3.3594 4.4805 10.078 5.5977 14.559 2.2383z" fill="#fdfcf2"/>
  <path d="m521.36 449.12c3.3594-5.0391 2.2383-11.199-2.8008-14.559-4.4805-3.3594-11.199-2.2383-14.559 2.2383-3.3594 5.0391-2.2383 11.199 2.8008 14.559 5.0391 3.3594 11.199 2.2422 14.559-2.2383z" fill="#fdfcf2"/>
  <path d="m541.52 465.92c1.6797-5.6016-1.6797-11.199-7.2812-12.879-5.6016-1.6797-11.199 1.1211-12.879 6.7188-1.6797 5.6016 1.6797 11.199 7.2812 12.879 5.5977 1.6797 11.199-1.1211 12.879-6.7188z" fill="#fdfcf2"/>
  <path d="m557.2 472.64c-3.3594-4.4805-10.078-5.6016-14.559-2.2383-4.4805 3.3594-5.6016 9.5195-2.2383 14.559 3.3594 4.4805 10.078 5.6016 14.559 2.2383 4.4805-3.918 5.5977-10.078 2.2383-14.559z" fill="#fdfcf2"/>
  <path d="m537.04 489.44c-3.3594-4.4805-10.078-5.6016-14.559-2.2383-4.4805 3.3594-5.6016 9.5195-2.2383 14.559 3.3594 4.4805 10.078 5.6016 14.559 2.2383 4.4805-3.9219 5.0391-10.078 2.2383-14.559z" fill="#fdfcf2"/>
  <path d="m514.64 467.6c-3.3594-4.4805-10.078-5.6016-14.559-2.2383-4.4805 3.3594-5.6016 9.5195-2.2383 14.559 3.3594 4.4805 10.078 5.6016 14.559 2.2383 4.4766-3.9219 5.5977-10.082 2.2383-14.559z" fill="#fdfcf2"/>
  <path d="m500.08 502.32c3.3594-5.0391 2.2383-11.199-2.8008-14.559-4.4805-3.3594-11.199-2.2383-14.559 2.2383-3.3594 5.0391-2.2383 11.199 2.8008 14.559 5.0391 2.8008 11.199 2.2422 14.559-2.2383z" fill="#fdfcf2"/>
  <path d="m521.92 519.68c1.6797-5.6016-1.6797-11.199-7.2812-12.879-5.6016-1.6797-11.199 1.1211-12.879 6.7188-1.6797 5.6016 1.6797 11.199 7.2812 12.879 5.5977 1.1211 11.195-1.6797 12.879-6.7188z" fill="#fdfcf2"/>
 </g>
</svg>