<?xml version="1.0" standalone="no"?>
<!DOCTYPE svg PUBLIC "-//W3C//DTD SVG 20010904//EN"
 "http://www.w3.org/TR/2001/REC-SVG-20010904/DTD/svg10.dtd">
<svg version="1.0" xmlns="http://www.w3.org/2000/svg"
 width="500.000000pt" height="500.000000pt" viewBox="0 0 500.000000 500.000000"
 preserveAspectRatio="xMidYMid meet">

<g transform="translate(0.000000,500.000000) scale(0.100000,-0.100000)"
fill="#000000" stroke="none">
<path d="M2462 3814 c-22 -15 -22 -18 -22 -263 0 -209 2 -251 15 -261 22 -18
62 -15 85 5 19 17 20 32 20 257 0 225 -1 239 -20 258 -24 24 -48 25 -78 4z"/>
<path d="M1922 3740 c-12 -5 -27 -20 -33 -33 -9 -21 2 -52 89 -238 108 -229
124 -250 174 -230 54 20 48 45 -58 272 -85 182 -121 241 -144 238 -3 0 -15 -4
-28 -9z"/>
<path d="M3024 3736 c-10 -8 -64 -109 -118 -224 -107 -228 -111 -249 -57 -272
40 -16 65 -1 89 53 11 23 56 120 101 215 53 111 80 179 76 191 -12 39 -60 58
-91 37z"/>
<path d="M1472 3534 c-42 -29 -30 -58 114 -261 75 -107 145 -195 156 -199 27
-8 72 26 76 57 2 17 -35 77 -128 209 -72 102 -138 191 -147 198 -22 16 -44 15
-71 -4z"/>
<path d="M3457 3538 c-9 -7 -75 -96 -147 -198 -93 -132 -130 -192 -128 -209 4
-32 49 -65 76 -56 31 9 292 383 292 417 0 45 -57 73 -93 46z"/>
<path d="M1047 3252 c-39 -43 -26 -62 155 -236 182 -175 205 -188 241 -148 39
43 26 62 -155 236 -182 174 -205 188 -241 148z"/>
<path d="M3713 3104 c-142 -136 -173 -171 -173 -193 0 -15 8 -35 18 -44 40
-36 60 -24 240 149 141 136 172 171 172 193 0 15 -8 35 -18 44 -40 36 -60 24
-239 -149z"/>
<path d="M2308 3110 c-318 -59 -643 -244 -921 -523 l-87 -88 46 -53 c55 -64
197 -190 302 -266 316 -232 658 -343 955 -311 259 28 511 134 762 321 108 80
226 186 290 257 l46 52 -88 88 c-281 283 -605 465 -927 523 -133 24 -249 24
-378 0z m321 -105 c246 -65 410 -310 374 -560 -36 -252 -249 -437 -503 -437
-237 0 -434 155 -495 389 -66 254 103 536 364 609 63 17 195 17 260 -1z m-634
-134 c-68 -95 -115 -243 -115 -363 1 -131 58 -282 149 -395 28 -35 49 -63 47
-63 -16 0 -149 67 -225 114 -123 75 -239 164 -336 258 l-80 78 55 50 c94 86
209 178 294 234 81 54 224 136 238 136 5 0 -8 -22 -27 -49z m1090 -7 c152 -86
265 -168 408 -299 l72 -66 -81 -79 c-142 -137 -345 -277 -510 -351 -35 -15
-64 -27 -64 -25 0 1 20 24 44 50 197 215 218 544 51 777 -19 27 -32 49 -27 49
4 0 52 -25 107 -56z"/>
<path d="M2394 2761 c-166 -75 -214 -284 -97 -420 104 -122 302 -122 406 0 41
47 67 119 67 183 l0 39 -22 -20 c-36 -32 -63 -43 -109 -43 -105 0 -170 108
-123 206 9 19 25 39 36 45 59 32 -89 41 -158 10z"/>
<path d="M1205 2000 c-93 -88 -172 -167 -173 -176 -12 -54 38 -95 86 -69 15 8
101 85 191 173 146 141 163 161 156 183 -4 13 -14 30 -23 37 -39 30 -63 15
-237 -148z"/>
<path d="M3560 2120 c-39 -39 -28 -56 149 -234 149 -150 173 -169 201 -169 37
0 60 23 60 62 0 21 -36 62 -172 193 -181 175 -199 187 -238 148z"/>
<path d="M1724 1922 c-6 -4 -71 -90 -144 -191 -86 -120 -132 -193 -132 -210 0
-41 55 -75 88 -53 27 17 284 386 284 407 0 41 -61 71 -96 47z"/>
<path d="M3220 1913 c-22 -9 -39 -35 -39 -58 0 -22 254 -392 280 -408 44 -27
104 28 82 76 -17 37 -243 361 -265 380 -21 18 -32 20 -58 10z"/>
<path d="M2093 1762 c-18 -12 -213 -421 -213 -448 0 -28 39 -57 72 -52 19 2
41 40 130 218 59 118 108 223 108 233 0 39 -62 71 -97 49z"/>
<path d="M2827 1742 c-10 -10 -17 -27 -17 -36 0 -23 177 -414 198 -438 32 -37
102 -10 102 39 0 24 -188 435 -203 445 -22 14 -64 8 -80 -10z"/>
<path d="M2475 1718 c-11 -6 -23 -16 -27 -22 -4 -6 -8 -120 -8 -253 0 -239 0
-242 22 -257 30 -21 54 -20 78 4 19 19 20 33 20 264 0 183 -3 246 -12 254 -23
17 -52 22 -73 10z"/>
</g>
</svg>
