
<svg version="1.1" xmlns="http://www.w3.org/2000/svg" xmlns:xlink="http://www.w3.org/1999/xlink" x="0px" y="0px" viewBox="0 0 1000 1000" enable-background="new 0 0 1000 1000" xml:space="preserve">
<g><path d="M788.2,10H211.8C148.1,10,96.5,61.7,96.5,125.3v691.8c0,63.7,51.6,115.3,115.3,115.3h57.6v28.8c0,16,12.9,28.8,28.8,28.8h403.5c15.9,0,28.8-12.8,28.8-28.8v-28.8h57.6c63.7,0,115.3-51.6,115.3-115.3V125.3C903.5,61.7,851.9,10,788.2,10L788.2,10z M845.9,817.1c0,31.9-25.8,57.6-57.6,57.6H211.8c-31.8,0-57.6-25.8-57.6-57.6V125.3c0-31.8,25.8-57.6,57.6-57.6h576.5c31.8,0,57.6,25.8,57.6,57.6V817.1z M269.4,240.6h461.2v-57.6H269.4V240.6z M269.4,413.5h461.2v-57.6H269.4V413.5z M269.4,586.5h461.2v-57.6H269.4V586.5z M269.4,759.4h461.2v-57.6H269.4V759.4z"/></g>
</svg>