<svg xmlns="http://www.w3.org/2000/svg" xmlns:svgjs="http://svgjs.com/svgjs" xmlns:xlink="http://www.w3.org/1999/xlink" width="288" height="288"><svg xmlns="http://www.w3.org/2000/svg" width="288" height="288" viewBox="0 0 50 50"><path style="line-height:normal;text-indent:0;text-align:start;text-decoration-line:none;text-decoration-style:solid;text-decoration-color:#000;text-transform:none;block-progression:tb;isolation:auto;mix-blend-mode:normal" fill="#fdfcf2" d="M 12 4 L 12 5 L 12 14 L 20 14 L 20 22 L 30 22 L 30 14 L 38 14 L 38 4 L 30 4 L 22 4 L 20 4 L 12 4 z M 14 6 L 20 6 L 20 12 L 14 12 L 14 6 z M 22 6 L 28 6 L 28 12 L 22 12 L 22 6 z M 30 6 L 36 6 L 36 12 L 30 12 L 30 6 z M 22 14 L 28 14 L 28 20 L 22 20 L 22 14 z M 4 20 L 4 21 L 4 28 L 4 29 L 4 30 L 4 36 L 4 37 L 4 38 L 4 46 L 12 46 L 14 46 L 20 46 L 22 46 L 28 46 L 30 46 L 38 46 L 46 46 L 46 36 L 46 30 L 46 28 L 46 20 L 36 20 L 36 21 L 36 28 L 28 28 L 28 29 L 28 36 L 22 36 L 22 28 L 14 28 L 14 20 L 4 20 z M 6 22 L 12 22 L 12 28 L 6 28 L 6 22 z M 38 22 L 44 22 L 44 28 L 38 28 L 38 22 z M 6 30 L 12 30 L 12 36 L 6 36 L 6 30 z M 14 30 L 20 30 L 20 36 L 14 36 L 14 30 z M 30 30 L 36 30 L 36 36 L 30 36 L 30 30 z M 38 30 L 44 30 L 44 36 L 38 36 L 38 30 z M 6 38 L 12 38 L 12 44 L 6 44 L 6 38 z M 14 38 L 20 38 L 20 44 L 14 44 L 14 38 z M 22 38 L 28 38 L 28 44 L 22 44 L 22 38 z M 30 38 L 36 38 L 36 44 L 30 44 L 30 38 z M 38 38 L 44 38 L 44 44 L 38 44 L 38 38 z" class="color000 svgShape"/></svg></svg>